<svg preserveAspectRatio="none" width="100%" height="100%" overflow="visible" style="display: block;" viewBox="0 0 18 18" fill="none" xmlns="http://www.w3.org/2000/svg">
<g id="bolt">
<path id="Vector" d="M15.75 5.99966V11.9997C15.7497 12.2627 15.6803 12.5211 15.5487 12.7488C15.417 12.9765 15.2278 13.1656 15 13.2972L9.75 16.2972C9.52197 16.4288 9.26331 16.4981 9 16.4981C8.73669 16.4981 8.47803 16.4288 8.25 16.2972L3 13.2972C2.7722 13.1656 2.58299 12.9765 2.45135 12.7488C2.31971 12.5211 2.25027 12.2627 2.25 11.9997V5.99966C2.25027 5.73662 2.31971 5.47827 2.45135 5.25053C2.58299 5.0228 2.7722 4.83368 3 4.70216L8.25 1.70216C8.47803 1.57051 8.73669 1.5012 9 1.5012C9.26331 1.5012 9.52197 1.57051 9.75 1.70216L15 4.70216C15.2278 4.83368 15.417 5.0228 15.5487 5.25053C15.6803 5.47827 15.7497 5.73662 15.75 5.99966Z" stroke="var(--stroke-0, white)" stroke-width="2" stroke-linecap="round"/>
</g>
</svg>
